<?xml version="1.0" encoding="UTF-8"?>
<svg id="Layer_2" data-name="Layer 2" xmlns="http://www.w3.org/2000/svg" viewBox="0 0 887.93 617.52">
  <g id="Layer_1-2" data-name="Layer 1">
    <g>
      <path d="M873.3,475.47c3.38-2.58,10.25-7.83,13.6-10.39l.88,23.19.15,3.09-2,24.86c-5.14,55.29-58.42,100.1-113.77,100.48,0,0-256.6.36-256.6.36-35.17.87-74.63-19.4-84.3-54.84-23.08-62.72,45.27-121.3,77.7-166.99,7.54-9.96,22.62-28.49,30.39-38.61,23.38-29.64,121.37-153.78,142.8-181.07,6.4-8.43,15.21-17.36,18.73-27.58,5.61-16.67-10.12-29.97-26.12-29.15-9.08-.61-242.91.37-242.97-.06,30.02-29.01,49.88-74.56,42.35-118.42l310.7.09c21.62.17,41.62,6.37,58.62,18.7,38.63,31.26,46.1,90.45,14.64,130.25,0,0-167.82,214.59-167.82,214.59l-5.79,7.31-46.27,58.92c-8.05,13.88-43.62,41.22-22.2,57.62.5,8.76,190.76,4.4,197.67,4.45,23.34.17,41.81-4.96,59.6-16.79Z"/>
      <path d="M401.64,600.31c1.85,3.63,6,11.56,8.02,15.01.02-.02-1.52,1.53-2.18,2.19-26.11-1.45-212.78-.02-243.19-.47-54.38,1.28-108.62-20.97-138.14-67.7-2.25-4.33-11.5-23.23-13.43-27.16,0,0-.48-2.82-.48-2.82l-8.55-34.2c-11.66-69.6,3.38-150.34,58.2-198.51,91.93-81.88,194.62-4.13,255.46-72.58.92-3.06,2.54-3.01,2.75,0l1.65,24.72c1.25,28.25-6.46,55.79-23.46,78.42-36.79,42.59-71.76,44.87-124.54,44.87-30.2,3.71-40.53,36.07-39.58,61.72.06,16.49-1.91,35.07,8.55,49.02,9.36,12.99,22.4,19.2,38.99,19.21l81.36.06c36.84.11,91.33-.02,128.36.18-10.63,36.51-8.64,75.08,10.19,108.04Z"/>
      <path d="M4.1,300.29l-1.98-.63c-.79-33.65.17-118.42-.04-153.35.5-7.75,2.2-23.12,3.66-30.72,3.37-24.94,14.81-47.62,30.64-66.93C72.47,4.73,125.28-2.04,178.48.45c26.67.03,220.7-.07,249.58-.04,5.97,32.26-3.25,62.47-24.49,86.87-17.92,20.88-44.2,32.48-71.9,31.87,0,0-145.04-.07-145.04-.07-16.73,0-32.85,4.24-41.53,17.2-16,18.88-9.18,52.86-11.1,75.5-60,17.15-92.43,36.06-129.91,88.52Z"/>
      <path d="M510.62,292.65l-97.2,61.15c-10.16,7.11-24.12,1.95-24.93-11.38,2.48-7.89-6.7-143.24,6.69-143.44,4.52-2.69,11.68-3.26,16.48-.24l101.72,64.09c13.67,7.23,11.03,23.21-2.75,29.81Z"/>
    </g>
  </g>
</svg>